<svg width="1004" height="531" viewBox="0 0 1004 531" fill="none" xmlns="http://www.w3.org/2000/svg">
<g clip-path="url(#clip0_68_3)">
<path d="M0 304.6H76.41L118.87 93.4H42.45L0 304.6ZM46.66 68.21H123.39L136 5.01999H59.3L46.66 68.21ZM106.13 364.03H182.55L229.24 135.85H286.55L295 93.4H238.79L240.92 83.85C244.1 65.85 250.47 45.64 279.12 45.64C296.12 45.64 312.03 46.7 327.94 54.13L336.44 9.56C318.709 3.30374 300.052 0.0720586 281.25 0C219.69 0 177.25 36.09 161.32 93.4H134.79L126.3 135.85H152.83L106.13 364.03Z" fill="white"/>
<path d="M348.11 308.85C438.32 308.85 500.94 227.12 500.94 160.26C500.94 110.38 455.3 89.15 410.73 89.15C312 89.15 257.9 177.29 257.9 237.74C257.9 287.62 304.6 308.85 348.11 308.85ZM590.11 308.85C680.32 308.85 742.94 227.12 742.94 160.26C742.94 110.38 696.24 89.15 651.66 89.15C552.96 89.15 498.84 177.24 498.84 237.74C498.84 287.62 546.6 308.85 590.11 308.85ZM867.11 304.6H942.46L1004 4.29004H927.59L909.54 93.44L877.7 90.26C803.41 90.26 735.49 185.77 735.49 253.7C735.49 281.29 753.49 308.89 784.31 308.89C827.82 308.89 858.6 287.66 871.31 266.43H875.55L867.11 304.6ZM631.48 462.74C572.169 511.883 495.989 535.879 419.22 529.6C318.39 523.23 246.22 445.75 233.49 364.03H237.73C261.08 415.03 317.33 462.74 386.32 470.16C456.32 478.65 540.21 446.82 585.84 403.3L534.9 364.03H688.79L654.79 527.48L632.5 463.8L631.48 462.74Z" fill="white"/>
</g>
<defs>
<clipPath id="clip0_68_3">
<rect width="1004" height="530.58" fill="white"/>
</clipPath>
</defs>
</svg>
